<?xml version="1.0" encoding="UTF-8" standalone="no"?>
<!DOCTYPE svg PUBLIC "-//W3C//DTD SVG 1.1//EN" "http://www.w3.org/Graphics/SVG/1.1/DTD/svg11.dtd">
<svg t="1763113548524" class="icon" viewBox="0 0 1024 1024" version="1.1" xmlns="http://www.w3.org/2000/svg" p-id="30947" xmlns:xlink="http://www.w3.org/1999/xlink" width="1024" height="1024">
    <path d="M943.9232 572.928c0 111.5136-42.2912 213.1968-111.7184 289.8944H191.7952C122.368 786.1248 80.0768 684.4416 80.0768 572.928c0-238.592 193.3312-431.9232 431.9232-431.9232s431.9232 193.3312 431.9232 431.9232z" fill="#37474F" p-id="30948"/>
    <path d="M389.12 717.0048h245.76v80.384H389.12z" fill="#00E5FF" p-id="30949"/>
    <path d="M571.904 561.664c0.7168 3.6864 1.1264 7.4752 1.1264 11.3664 0 33.6896-27.3408 60.928-61.0304 60.928s-61.0304-27.2384-61.0304-60.928S478.3104 512 512 512c13.0048 0 25.1904 4.096 35.1232 11.1616l187.2896-125.7472 25.4976 37.9904-188.0064 126.2592z" fill="#FF3D00" p-id="30950"/>
    <path d="M884.736 574.7712c0 77.1072-23.552 148.7872-64 208.0768l-20.2752-13.0048-15.872-10.24-63.0784-40.8576 22.3232-34.5088 62.0544 40.1408c20.7872-39.3216 33.6896-83.456 36.6592-130.2528h-86.3232v-41.0624h86.6304c-6.144-107.4176-63.8976-201.0112-148.7872-256.3072l-46.3872 67.072-33.8944-23.3472 44.2368-64.1024a328.8064 328.8064 0 0 0-125.44-32.3584v86.4256h-41.1648v-86.016c-48.7424 3.4816-94.4128 17.5104-134.9632 39.8336l45.9776 69.9392-34.304 22.6304-46.3872-70.4512a330.76224 330.76224 0 0 0-79.0528 81.6128l67.072 46.3872-23.3472 33.792-64.7168-44.6464a326.89152 326.89152 0 0 0-34.9184 129.536h79.2576v41.0624h-78.9504c3.072 47.8208 16.4864 92.8768 37.9904 132.9152l61.2352-44.4416 24.1664 33.28-63.6928 46.2848-12.3904 9.0112-22.3232 16.2816a368.24064 368.24064 0 0 1-67.1744-212.6848C144.896 370.3808 310.4768 204.8 514.8672 204.8 719.1552 204.8 884.736 370.3808 884.736 574.7712z" fill="#CFD8DC" p-id="30951"/>
</svg>
